<?xml version="1.0" standalone="no"?>
<!DOCTYPE svg PUBLIC "-//W3C//DTD SVG 20010904//EN"
 "http://www.w3.org/TR/2001/REC-SVG-20010904/DTD/svg10.dtd">
<svg version="1.0" xmlns="http://www.w3.org/2000/svg"
 width="301.000000pt" height="301.000000pt" viewBox="0 0 301.000000 301.000000"
 preserveAspectRatio="xMidYMid meet">
<metadata>
Created by potrace 1.14, written by Peter Selinger 2001-2017
</metadata>
<g transform="translate(0.000000,301.000000) scale(0.100000,-0.100000)"
fill="#000000" stroke="none">
<path d="M1320 2979 c-95 -12 -235 -42 -275 -59 -11 -4 -42 -16 -70 -25 -315
-110 -620 -376 -787 -685 -27 -51 -88 -187 -94 -210 -2 -8 -13 -46 -24 -85
-23 -75 -27 -93 -35 -140 -3 -16 -8 -43 -11 -60 -13 -64 -12 -332 2 -425 15
-103 63 -276 96 -349 61 -137 102 -214 126 -239 6 -7 12 -17 12 -21 0 -4 8
-17 18 -29 44 -52 52 -63 52 -68 0 -7 72 -85 125 -137 105 -102 218 -186 336
-250 63 -34 234 -105 267 -112 9 -1 42 -10 72 -19 30 -8 75 -18 100 -21 25 -4
64 -10 87 -15 71 -13 292 -9 393 6 103 16 243 53 330 87 109 43 308 156 353
201 9 10 17 15 17 12 0 -15 169 150 225 219 22 28 46 56 53 63 6 7 12 17 12
21 0 4 8 16 18 27 60 64 192 350 217 469 3 14 7 36 10 50 3 14 7 37 11 53 19
99 26 351 12 457 -51 369 -232 702 -514 944 -56 48 -151 115 -206 145 -27 14
-67 37 -90 49 -74 41 -236 99 -339 122 -24 5 -87 15 -149 25 -66 9 -274 9
-350 -1z"/>
</g>
</svg>
